<mxfile host="drawio-plugin" modified="2021-11-05T10:45:52.836Z" agent="5.0 (Windows NT 6.2; Win64; x64) AppleWebKit/537.36 (KHTML, like Gecko) Chrome/89.0.4389.114 Safari/537.36" etag="H2qA-yi-jf3djAzTSgAh" version="14.7.4" type="embed" pages="4"><diagram id="N1j6YX_7ffIH0EuLnY7Q" name="pets"><mxGraphModel dx="1536" dy="743" grid="1" gridSize="10" guides="1" tooltips="1" connect="1" arrows="1" fold="1" page="1" pageScale="1" pageWidth="850" pageHeight="1100" math="0" shadow="0"><root><mxCell id="eI5i-Em_oGPOHoLbcvzT-0"/><mxCell id="eI5i-Em_oGPOHoLbcvzT-1" parent="eI5i-Em_oGPOHoLbcvzT-0"/><mxCell id="3S-NK-2SkIj75a4JKLCx-0" value="Sparky" style="rounded=0;whiteSpace=wrap;html=1;" parent="eI5i-Em_oGPOHoLbcvzT-1" vertex="1"><mxGeometry x="20" y="170" width="110" height="40" as="geometry"/></mxCell><mxCell id="3S-NK-2SkIj75a4JKLCx-1" value="" style="rounded=0;whiteSpace=wrap;html=1;" parent="eI5i-Em_oGPOHoLbcvzT-1" vertex="1"><mxGeometry x="20" y="70" width="110" height="100" as="geometry"/></mxCell><mxCell id="3S-NK-2SkIj75a4JKLCx-2" value="Rex" style="rounded=0;whiteSpace=wrap;html=1;" parent="eI5i-Em_oGPOHoLbcvzT-1" vertex="1"><mxGeometry x="150" y="170" width="110" height="40" as="geometry"/></mxCell><mxCell id="3S-NK-2SkIj75a4JKLCx-3" value="" style="rounded=0;whiteSpace=wrap;html=1;" parent="eI5i-Em_oGPOHoLbcvzT-1" vertex="1"><mxGeometry x="150" y="70" width="110" height="100" as="geometry"/></mxCell><mxCell id="pVhPHTwofMnC_F_vKaiB-0" value="PetSummary" style="rounded=0;whiteSpace=wrap;html=1;fillColor=#d5e8d4;strokeColor=#82b366;" parent="eI5i-Em_oGPOHoLbcvzT-1" vertex="1"><mxGeometry x="300" y="90" width="110" height="40" as="geometry"/></mxCell></root></mxGraphModel></diagram><diagram id="Feh7ikbZaQ2uK8tx3SlX" name="adoption form"><mxGraphModel dx="1536" dy="743" grid="1" gridSize="10" guides="1" tooltips="1" connect="1" arrows="1" fold="1" page="1" pageScale="1" pageWidth="850" pageHeight="1100" math="0" shadow="0"><root><mxCell id="0"/><mxCell id="1" parent="0"/><mxCell id="2" value="&lt;span style=&quot;color: rgba(0 , 0 , 0 , 0) ; font-family: monospace ; font-size: 0px&quot;&gt;%3CmxGraphModel%3E%3Croot%3E%3CmxCell%20id%3D%220%22%2F%3E%3CmxCell%20id%3D%221%22%20parent%3D%220%22%2F%3E%3CmxCell%20id%3D%222%22%20value%3D%22Food%22%20style%3D%22rounded%3D0%3BwhiteSpace%3Dwrap%3Bhtml%3D1%3BfillColor%3D%2399FFCC%3B%22%20vertex%3D%221%22%20parent%3D%221%22%3E%3CmxGeometry%20x%3D%22105%22%20y%3D%22320%22%20width%3D%22120%22%20height%3D%2230%22%20as%3D%22geometry%22%2F%3E%3C%2FmxCell%3E%3C%2Froot%3E%3C%2FmxGraphModel%3E&lt;/span&gt;" style="rounded=0;whiteSpace=wrap;html=1;" parent="1" vertex="1"><mxGeometry x="80" y="70" width="350" height="560" as="geometry"/></mxCell><mxCell id="4" value="First name" style="rounded=0;whiteSpace=wrap;html=1;" parent="1" vertex="1"><mxGeometry x="101" y="130" width="139" height="20" as="geometry"/></mxCell><mxCell id="6" value="Email" style="rounded=0;whiteSpace=wrap;html=1;fillColor=#fff2cc;strokeColor=#d6b656;" parent="1" vertex="1"><mxGeometry x="101" y="190" width="299" height="20" as="geometry"/></mxCell><mxCell id="7" value="Phone number" style="rounded=0;whiteSpace=wrap;html=1;fillColor=#fff2cc;strokeColor=#d6b656;" parent="1" vertex="1"><mxGeometry x="101" y="220" width="299" height="20" as="geometry"/></mxCell><mxCell id="9" value="First name" style="rounded=0;whiteSpace=wrap;html=1;fillColor=#fff2cc;strokeColor=#d6b656;" parent="1" vertex="1"><mxGeometry x="101" y="130" width="299" height="20" as="geometry"/></mxCell><mxCell id="10" value="Last name" style="rounded=0;whiteSpace=wrap;html=1;fillColor=#fff2cc;strokeColor=#d6b656;" parent="1" vertex="1"><mxGeometry x="99.5" y="160" width="299" height="20" as="geometry"/></mxCell><mxCell id="20" value="Submit" style="rounded=0;whiteSpace=wrap;html=1;fillColor=#e1d5e7;strokeColor=#9673a6;" parent="1" vertex="1"><mxGeometry x="195" y="535" width="120" height="30" as="geometry"/></mxCell><mxCell id="25" value="&lt;font color=&quot;#ff3333&quot;&gt;adopt page&lt;/font&gt;" style="text;html=1;align=center;verticalAlign=middle;resizable=0;points=[];autosize=1;strokeColor=none;" parent="1" vertex="1"><mxGeometry x="10" y="20" width="80" height="20" as="geometry"/></mxCell><mxCell id="26" value="adopt form" style="text;html=1;align=center;verticalAlign=middle;resizable=0;points=[];autosize=1;strokeColor=none;" parent="1" vertex="1"><mxGeometry x="90" y="70" width="70" height="20" as="geometry"/></mxCell><mxCell id="27" value="logo" style="ellipse;whiteSpace=wrap;html=1;aspect=fixed;align=center;" parent="1" vertex="1"><mxGeometry x="237.5" y="80" width="30" height="30" as="geometry"/></mxCell><mxCell id="29" value="Address" style="rounded=0;whiteSpace=wrap;html=1;fillColor=#fff2cc;strokeColor=#d6b656;" parent="1" vertex="1"><mxGeometry x="101" y="250" width="299" height="20" as="geometry"/></mxCell><mxCell id="32" value="Pet id" style="rounded=0;whiteSpace=wrap;html=1;fillColor=#fff2cc;strokeColor=#d6b656;" parent="1" vertex="1"><mxGeometry x="100.5" y="280" width="299" height="20" as="geometry"/></mxCell><mxCell id="33" value="Date of adoption" style="rounded=0;whiteSpace=wrap;html=1;fillColor=#fff2cc;strokeColor=#d6b656;" parent="1" vertex="1"><mxGeometry x="100.5" y="310" width="299" height="20" as="geometry"/></mxCell><mxCell id="34" value="Proof of financial situation&amp;nbsp;" style="rounded=0;whiteSpace=wrap;html=1;fillColor=#fff2cc;strokeColor=#d6b656;" parent="1" vertex="1"><mxGeometry x="101" y="410" width="180" height="30" as="geometry"/></mxCell><mxCell id="38" value="Proof of your address" style="rounded=0;whiteSpace=wrap;html=1;fillColor=#fff2cc;strokeColor=#d6b656;" parent="1" vertex="1"><mxGeometry x="99.5" y="370" width="179.5" height="30" as="geometry"/></mxCell><mxCell id="44" value="Identity card" style="rounded=0;whiteSpace=wrap;html=1;fillColor=#fff2cc;strokeColor=#d6b656;" parent="1" vertex="1"><mxGeometry x="101" y="450" width="180" height="30" as="geometry"/></mxCell><mxCell id="45" value="Choose File" style="fillColor=#FEFEFE;strokeColor=#AAAAAA;fontSize=14;gradientColor=#F0F0F0;" parent="1" vertex="1"><mxGeometry x="290" y="410" width="110" height="30" as="geometry"/></mxCell><mxCell id="47" value="Choose File" style="fillColor=#FEFEFE;strokeColor=#AAAAAA;fontSize=14;gradientColor=#F0F0F0;" parent="1" vertex="1"><mxGeometry x="289" y="450" width="110" height="30" as="geometry"/></mxCell><mxCell id="48" value="Choose File" style="fillColor=#FEFEFE;strokeColor=#AAAAAA;fontSize=14;gradientColor=#F0F0F0;" parent="1" vertex="1"><mxGeometry x="290" y="370" width="110" height="30" as="geometry"/></mxCell><mxCell id="49" value="pe pagina adopt vom include&amp;nbsp; inainte de form si informatiile:" style="text;html=1;align=center;verticalAlign=middle;resizable=0;points=[];autosize=1;strokeColor=none;" parent="1" vertex="1"><mxGeometry x="480" y="190" width="330" height="20" as="geometry"/></mxCell><mxCell id="50" value="-&amp;nbsp; copia dovezii spatiului din care sa rezulte conditiile corespunzatoare de crestere a animalutului (exp: contractul casei)" style="text;html=1;align=center;verticalAlign=middle;resizable=0;points=[];autosize=1;strokeColor=none;" parent="1" vertex="1"><mxGeometry x="450" y="220" width="650" height="20" as="geometry"/></mxCell><mxCell id="51" value="- copia dovezii resurselor materiale pentru cresterea animalutului (adeverinta de venit, fluturas salariu, talon de pesnie)" style="text;html=1;align=center;verticalAlign=middle;resizable=0;points=[];autosize=1;strokeColor=none;" parent="1" vertex="1"><mxGeometry x="450" y="250" width="650" height="20" as="geometry"/></mxCell><mxCell id="52" value="- copia CI" style="text;html=1;align=left;verticalAlign=middle;resizable=0;points=[];autosize=1;strokeColor=none;" parent="1" vertex="1"><mxGeometry x="460" y="280" width="70" height="20" as="geometry"/></mxCell><mxCell id="54" value="- daca pentru un animalut vor fi trimise mai multe solicitari de adoptie,&amp;nbsp; vom face o selectie tinand cont de conceptul de matching." style="text;html=1;align=center;verticalAlign=middle;resizable=0;points=[];autosize=1;strokeColor=none;" parent="1" vertex="1"><mxGeometry x="450" y="300" width="700" height="20" as="geometry"/></mxCell><mxCell id="55" value="&amp;nbsp;Potentialii adoptatori vor trimite poze de la locatia unde va locui animalutul, poze info cu celelalte animalute ale familiei (daca exista) info despre experienta adoptatorului privind ingrijirea aimalutului, motivul pentru care doreste sa adopte, ce va face cu animalutul cand va pleca intr un concediu)." style="text;html=1;align=center;verticalAlign=middle;resizable=0;points=[];autosize=1;strokeColor=none;" parent="1" vertex="1"><mxGeometry x="450" y="330" width="1580" height="20" as="geometry"/></mxCell><mxCell id="56" value="&amp;nbsp;In urma obtinerii acestor info asociatia noastra va analiza si decide ulterior persoana ce se va numi adoptator." style="text;html=1;align=center;verticalAlign=middle;resizable=0;points=[];autosize=1;strokeColor=none;" parent="1" vertex="1"><mxGeometry x="450" y="360" width="600" height="20" as="geometry"/></mxCell><mxCell id="57" value="- daca userul nu are posibilitatea incarcarii imaginilor solicitate de noi , ei pot aduce copii ale documentelor in ziua adoptiei alese de user" style="text;html=1;align=center;verticalAlign=middle;resizable=0;points=[];autosize=1;strokeColor=none;" parent="1" vertex="1"><mxGeometry x="450" y="390" width="740" height="20" as="geometry"/></mxCell><mxCell id="62" value="Time line" style="rounded=0;whiteSpace=wrap;html=1;fillColor=#fff2cc;strokeColor=#d6b656;" parent="1" vertex="1"><mxGeometry x="100" y="340" width="299" height="20" as="geometry"/></mxCell><mxCell id="67" value="neprezentarea adoptatorului in ziua stabilita si intervalul orar ales va duce la anularea solicitarii de adoptie" style="text;html=1;align=center;verticalAlign=middle;resizable=0;points=[];autosize=1;strokeColor=none;" parent="1" vertex="1"><mxGeometry x="450" y="420" width="580" height="20" as="geometry"/></mxCell><mxCell id="69" value="Cancel" style="rounded=0;whiteSpace=wrap;html=1;fillColor=#dae8fc;strokeColor=#6c8ebf;" parent="1" vertex="1"><mxGeometry x="195" y="580" width="120" height="30" as="geometry"/></mxCell></root></mxGraphModel></diagram><diagram id="o7P2u0gCkhPgyIUoleXB" name="my adoptions"><mxGraphModel dx="1536" dy="743" grid="1" gridSize="10" guides="1" tooltips="1" connect="1" arrows="1" fold="1" page="1" pageScale="1" pageWidth="850" pageHeight="1100" math="0" shadow="0"><root><mxCell id="egK9wHSSoUezQF96ozDt-0"/><mxCell id="egK9wHSSoUezQF96ozDt-1" parent="egK9wHSSoUezQF96ozDt-0"/><mxCell id="egK9wHSSoUezQF96ozDt-2" value="pet name" style="rounded=0;whiteSpace=wrap;html=1;" parent="egK9wHSSoUezQF96ozDt-1" vertex="1"><mxGeometry x="20" y="10" width="100" height="40" as="geometry"/></mxCell><mxCell id="egK9wHSSoUezQF96ozDt-5" value="Sparky" style="rounded=0;whiteSpace=wrap;html=1;" parent="egK9wHSSoUezQF96ozDt-1" vertex="1"><mxGeometry x="20" y="170" width="110" height="40" as="geometry"/></mxCell><mxCell id="Yobb4RIXVUxU1MUUIr2K-0" value="" style="rounded=0;whiteSpace=wrap;html=1;" parent="egK9wHSSoUezQF96ozDt-1" vertex="1"><mxGeometry x="20" y="70" width="110" height="100" as="geometry"/></mxCell><mxCell id="Yobb4RIXVUxU1MUUIr2K-1" value="photo" style="rounded=0;whiteSpace=wrap;html=1;" parent="egK9wHSSoUezQF96ozDt-1" vertex="1"><mxGeometry x="130" y="10" width="100" height="40" as="geometry"/></mxCell><mxCell id="Yobb4RIXVUxU1MUUIr2K-2" value="Rex" style="rounded=0;whiteSpace=wrap;html=1;" parent="egK9wHSSoUezQF96ozDt-1" vertex="1"><mxGeometry x="150" y="170" width="110" height="40" as="geometry"/></mxCell><mxCell id="Yobb4RIXVUxU1MUUIr2K-3" value="" style="rounded=0;whiteSpace=wrap;html=1;" parent="egK9wHSSoUezQF96ozDt-1" vertex="1"><mxGeometry x="150" y="70" width="110" height="100" as="geometry"/></mxCell><mxCell id="Yobb4RIXVUxU1MUUIr2K-4" value="PetSummary" style="rounded=0;whiteSpace=wrap;html=1;fillColor=#d5e8d4;strokeColor=#82b366;" parent="egK9wHSSoUezQF96ozDt-1" vertex="1"><mxGeometry x="300" y="90" width="110" height="40" as="geometry"/></mxCell></root></mxGraphModel></diagram><diagram id="zZSuxbenmmBQqWjY4LtM" name="pet info"><mxGraphModel dx="1536" dy="743" grid="1" gridSize="10" guides="1" tooltips="1" connect="1" arrows="1" fold="1" page="1" pageScale="1" pageWidth="850" pageHeight="1100" math="0" shadow="0"><root><mxCell id="dpw-lbr1L75E7UlcmYr2-0"/><mxCell id="dpw-lbr1L75E7UlcmYr2-1" parent="dpw-lbr1L75E7UlcmYr2-0"/><mxCell id="vDpld0PcxSnmBrPC6yJC-0" value="Sparky" style="rounded=0;whiteSpace=wrap;html=1;" parent="dpw-lbr1L75E7UlcmYr2-1" vertex="1"><mxGeometry x="20" y="130" width="110" height="40" as="geometry"/></mxCell><mxCell id="vDpld0PcxSnmBrPC6yJC-1" value="" style="rounded=0;whiteSpace=wrap;html=1;" parent="dpw-lbr1L75E7UlcmYr2-1" vertex="1"><mxGeometry x="20" y="30" width="110" height="100" as="geometry"/></mxCell><mxCell id="vDpld0PcxSnmBrPC6yJC-2" value="Age" style="rounded=0;whiteSpace=wrap;html=1;" parent="dpw-lbr1L75E7UlcmYr2-1" vertex="1"><mxGeometry x="160" y="40" width="110" height="40" as="geometry"/></mxCell><mxCell id="vDpld0PcxSnmBrPC6yJC-3" value="Breed" style="rounded=0;whiteSpace=wrap;html=1;" parent="dpw-lbr1L75E7UlcmYr2-1" vertex="1"><mxGeometry x="160" y="80" width="110" height="40" as="geometry"/></mxCell><mxCell id="fc5XPhemoiyz0DskoJfo-0" value="PetInfo" style="rounded=0;whiteSpace=wrap;html=1;fillColor=#d5e8d4;strokeColor=#82b366;" parent="dpw-lbr1L75E7UlcmYr2-1" vertex="1"><mxGeometry x="300" y="90" width="110" height="40" as="geometry"/></mxCell></root></mxGraphModel></diagram></mxfile>